<svg aria-hidden="true" style="position: absolute; width: 0; height: 0; overflow: hidden;" version="1.1" xmlns="http://www.w3.org/2000/svg" xmlns:xlink="http://www.w3.org/1999/xlink">
<defs>
<symbol id="icon-learning-languages-1" viewBox="0 0 41 32">
<path fill="#d9d9d9" style="fill: var(--color1, #d9d9d9)" d="M26.729 1.506h2.008v1.569h-2.008z"></path>
<path fill="#fff" style="fill: var(--color2, #fff)" d="M6.039 28.176s-2.17-3.817-1.669-4.787c0.5-0.971 1.781 0.775 1.781 0.775s-1.113-3.558-0.501-5.111c0.613-1.553 1.668 0 1.72 1.1s-0.222 2.976-0.222 2.976 0.445-3.881 1.501-2.717c1.057 1.164-1.335 5.046-1.335 5.046s1.614-0.902 1.556 0.259c-0.057 1.162-1.947 2.2-1.947 2.2z"></path>
<path fill="#263238" style="fill: var(--color3, #263238)" d="M8.462 26.624h-3.753l0.375 4.434h3.003l0.375-4.434z"></path>
<path fill="#fff" style="fill: var(--color2, #fff)" d="M32.658 4.128l-4.246 0.264c-0.25 0.016-0.47 0.128-0.628 0.298l-0.001 0.001c-0.155 0.167-0.25 0.391-0.25 0.638 0 0.004 0 0.009 0 0.013v-0.001l0.021 1.709-1.234 0.131 1.244 0.643c0.005 0.389 0.247 0.721 0.587 0.858l0.006 0.002c0.102 0.041 0.22 0.065 0.343 0.065 0.006 0 0.012-0 0.018-0h-0.001l4.122-0.075c0.239-0.004 0.468-0.1 0.639-0.268 0.165-0.162 0.271-0.385 0.28-0.633l0-0.002 0.095-2.671c0-0.011 0.001-0.024 0.001-0.037 0-0.263-0.108-0.501-0.283-0.671l-0-0c-0.169-0.165-0.399-0.266-0.654-0.266-0.022 0-0.043 0.001-0.064 0.002l0.003-0z"></path>
<path fill="#263238" style="fill: var(--color3, #263238)" d="M28.997 7.742v-0.446c0-0.214 0.152-0.357 0.38-0.357s0.38 0.139 0.38 0.35c0 0.010-0.008 0.016-0.021 0.018l-0.073 0.005c-0.013 0-0.021 0-0.021-0.010v-0.010c0-0 0-0 0-0 0-0.147-0.119-0.266-0.265-0.266h-0c0 0 0 0-0 0-0.073 0-0.14 0.030-0.188 0.078v0c-0.048 0.048-0.078 0.115-0.078 0.188v0 0.454c0 0.071 0.028 0.138 0.078 0.188 0.048 0.048 0.114 0.078 0.188 0.078s0.14-0.030 0.188-0.078v0c0.048-0.048 0.078-0.115 0.078-0.188 0-0 0-0 0-0v0c-0-0-0-0.001-0-0.001 0-0.002 0-0.005 0.001-0.007l-0 0c0.001-0.003 0.003-0.005 0.005-0.006l0-0c0.003-0.003 0.007-0.004 0.011-0.004 0.001 0 0.003 0 0.004 0l-0-0h0.073c0.012 0 0.021 0 0.021 0.008v0.008c0 0.213-0.152 0.354-0.38 0.354s-0.38-0.141-0.38-0.357zM29.974 7.036c-0-0.002-0-0.004-0-0.006 0-0.035 0.020-0.065 0.050-0.079l0.001-0c0.011-0.006 0.025-0.009 0.039-0.009 0.048 0 0.088 0.039 0.088 0.088 0 0.030-0.016 0.057-0.039 0.073l-0 0c-0.014 0.010-0.031 0.015-0.049 0.015v0c-0.002 0-0.004 0-0.006 0-0.033 0-0.062-0.020-0.075-0.049l-0-0.001c-0.004-0.010-0.007-0.021-0.007-0.033 0-0 0-0 0-0v0zM30.005 8.067v-0.778c-0-0-0-0.001-0-0.002 0-0.011 0.009-0.020 0.020-0.020 0 0 0.001 0 0.001 0h0.073c0.001-0 0.001-0 0.002-0 0.005 0 0.010 0.002 0.014 0.006v0c0.004 0.004 0.006 0.008 0.006 0.014 0 0.001-0 0.001-0 0.002v-0 0.778c0 0.001 0 0.001 0 0.002 0 0.002-0 0.005-0.001 0.007l0-0c-0.003 0.008-0.010 0.013-0.019 0.013-0 0-0.001-0-0.002-0h-0.073c-0 0-0.001 0-0.001 0-0.003 0-0.005-0.001-0.008-0.002l0 0c-0.005-0.002-0.009-0.006-0.011-0.012l-0-0c-0.001-0.002-0.001-0.004-0.001-0.007 0-0.001 0-0.001 0-0.002v0zM30.978 7.527v0.54c0 0 0 0.001 0 0.002 0 0.005-0.002 0.010-0.005 0.014v0c-0.002 0.002-0.004 0.004-0.007 0.005l-0 0c-0.002 0.001-0.005 0.001-0.007 0.001-0 0-0.001 0-0.001-0h-0.073c-0 0-0.001 0-0.002 0-0.006 0-0.010-0.002-0.014-0.006v0c-0.002-0.002-0.003-0.004-0.005-0.007l-0-0c-0.001-0.002-0.001-0.004-0.001-0.007 0-0.001 0-0.001 0-0.002v0-0.058c0-0.007-0.005-0.010-0.010 0-0.061 0.060-0.145 0.096-0.238 0.096-0.005 0-0.010-0-0.015-0l0.001 0c-0.138 0-0.267-0.066-0.267-0.237s0.123-0.263 0.333-0.263h0.189c0 0 0 0 0.001 0 0.003 0 0.006-0.002 0.007-0.005l0-0c0-0.001 0-0.002 0-0.003v-0.060c0-0.005 0.001-0.010 0.001-0.016 0-0.021-0.004-0.041-0.011-0.059l0 0.001c-0.024-0.063-0.084-0.106-0.153-0.106-0.009 0-0.018 0.001-0.027 0.002l0.001-0c-0.102 0-0.169 0.042-0.187 0.11-0.001 0.010-0.009 0.017-0.019 0.017-0.002 0-0.003-0-0.005-0.001l0 0-0.082-0.010c-0.013 0-0.021-0.007-0.020-0.017 0.021-0.119 0.141-0.2 0.308-0.2 0.198-0.003 0.306 0.109 0.306 0.269zM30.863 7.825v-0.125c0-0 0-0 0-0.001 0-0.002-0.001-0.004-0.002-0.005v0c-0.001-0.001-0.003-0.002-0.005-0.002-0 0-0.001 0-0.001 0h-0.169c-0.141 0-0.237 0.060-0.237 0.164s0.082 0.144 0.178 0.144c0.12 0.002 0.237-0.061 0.237-0.175zM31.213 7.875c-0.015-0.054-0.023-0.115-0.023-0.179 0-0.007 0-0.014 0-0.021l-0 0.001c-0-0.006-0-0.013-0-0.020 0-0.063 0.008-0.124 0.023-0.183l-0.001 0.005c0.048-0.131 0.171-0.223 0.316-0.223v0c0 0 0 0 0 0 0.145 0 0.268 0.092 0.315 0.221l0.001 0.002c0.017 0.065 0.025 0.132 0.023 0.199 0 0.006 0 0.013 0 0.020 0 0.064-0.009 0.125-0.024 0.184l0.001-0.005c-0.046 0.132-0.17 0.226-0.315 0.226-0.073 0-0.14-0.023-0.195-0.063l0.001 0.001c-0.056-0.040-0.098-0.096-0.121-0.161l-0.001-0.002v-0.002zM31.737 7.842c0.010-0.054 0.015-0.109 0.013-0.164 0-0.008 0.001-0.018 0.001-0.028 0-0.048-0.005-0.096-0.014-0.141l0.001 0.004c-0.026-0.092-0.11-0.158-0.209-0.158-0.049 0-0.095 0.017-0.132 0.045l0.001-0c-0.037 0.028-0.064 0.067-0.078 0.113l-0 0.002c-0.008 0.049-0.013 0.106-0.013 0.164s0.005 0.115 0.014 0.17l-0.001-0.006c0.027 0.092 0.11 0.158 0.209 0.158v0c0.099-0 0.182-0.066 0.208-0.157l0-0.002z"></path>
<path fill="#8c8c8c" style="fill: var(--color4, #8c8c8c)" d="M31.798 4.569h-2.781v1.754h2.781v-1.754z"></path>
<path fill="#696969" style="fill: var(--color5, #696969)" d="M31.798 4.569h-1.579v1.754h1.579v-1.754z"></path>
<path fill="#fff" style="fill: var(--color2, #fff)" d="M30.974 4.569h-1.133v1.754h1.133v-1.754z"></path>
<path fill="#263238" style="fill: var(--color3, #263238)" d="M29.018 4.569v-0.031c-0.017 0-0.031 0.014-0.031 0.031v0h0.031zM31.798 4.569h0.031c0-0.017-0.014-0.031-0.031-0.031v0 0.031zM31.798 6.323v0.031c0.017 0 0.031-0.014 0.031-0.031v0h-0.031zM29.018 6.323h-0.031c0 0.017 0.014 0.031 0.031 0.031v0-0.031zM30.219 4.569v-0.031c-0.017 0-0.031 0.014-0.031 0.031v0h0.031zM30.219 6.323h-0.031c0 0.017 0.014 0.031 0.031 0.031v0-0.031zM29.842 4.569v-0.031c-0.017 0-0.031 0.014-0.031 0.031v0h0.031zM30.974 4.569h0.031c0-0.017-0.014-0.031-0.031-0.031v0 0.031zM30.974 6.323v0.031c0.017 0 0.031-0.014 0.031-0.031v0h-0.031zM29.842 6.323h-0.031c0 0.017 0.014 0.031 0.031 0.031v0-0.031zM29.018 4.6h2.781v-0.063h-2.781v0.063zM31.767 4.569v1.754h0.063v-1.754h-0.063zM31.798 6.292h-2.781v0.063h2.781v-0.063zM29.049 6.323v-1.754h-0.063v1.754h0.063zM30.219 4.6h1.579v-0.063h-1.579v0.063zM31.798 6.292h-1.579v0.063h1.579v-0.063zM30.251 6.323v-1.754h-0.063v1.754h0.063zM29.842 4.6h1.133v-0.063h-1.133v0.063zM30.943 4.569v1.754h0.063v-1.754h-0.063zM30.974 6.292h-1.133v0.063h1.133v-0.063zM29.873 6.323v-1.754h-0.063v1.754h0.063z"></path>
<path fill="#fff" style="fill: var(--color2, #fff)" d="M14.874 6.23l-1.679-0.455 0.379-2.493c0.006-0.036 0.009-0.077 0.009-0.119 0-0.209-0.081-0.399-0.213-0.541l0 0c-0.145-0.155-0.351-0.252-0.579-0.252-0.022 0-0.045 0.001-0.066 0.003l0.003-0-3.565 0.295c-0.216 0.018-0.406 0.121-0.537 0.275l-0.001 0.001c-0.117 0.137-0.188 0.316-0.188 0.512 0 0.023 0.001 0.045 0.003 0.067l-0-0.003 0.262 3.27c0.017 0.201 0.105 0.378 0.24 0.508l0 0c0.134 0.129 0.315 0.212 0.515 0.22l2.745 0.108c0.010 0 0.021 0.001 0.033 0.001 0.191 0 0.367-0.068 0.503-0.182l-0.001 0.001c0.146-0.121 0.247-0.292 0.277-0.487l0.001-0.004 0.071-0.467 1.788-0.259z"></path>
<path fill="#263238" style="fill: var(--color3, #263238)" d="M10.244 5.458h0.073c0 0 0.001-0 0.001-0 0.009 0 0.016 0.005 0.019 0.013l0 0c0.001 0.003 0.001 0.005 0.001 0.008v1.093c0 0 0 0.001 0 0.001 0 0.005-0.002 0.010-0.006 0.014v0c-0.004 0.004-0.009 0.006-0.014 0.006-0 0-0.001 0-0.001-0h-0.073c-0.001 0-0.001 0-0.002 0-0.005 0-0.010-0.002-0.014-0.006v0c-0.004-0.004-0.006-0.008-0.006-0.014 0-0.001 0-0.001 0-0.002v0-0.492c0-0 0-0.001 0-0.001s-0-0.002-0-0.003l0 0c-0.001-0.002-0.002-0.004-0.004-0.005h-0c-0.001-0-0.002-0-0.002-0s-0.001 0-0.001 0h-0.513c-0-0-0.001-0-0.001-0-0.003 0-0.006 0.002-0.007 0.005v0c-0 0.001-0.001 0.002-0 0.003v0.492c0 0.001 0 0.001 0 0.002 0 0.002-0 0.005-0.001 0.007l0-0c-0.002 0.005-0.006 0.010-0.012 0.012l-0 0c-0.002 0.001-0.004 0.001-0.007 0.001-0.001 0-0.001-0-0.002-0h-0.073c-0.001 0-0.001 0-0.002 0-0.005 0-0.010-0.002-0.014-0.006v0c-0.003-0.003-0.005-0.008-0.005-0.013 0-0.001 0-0.002 0-0.003v0-1.096c-0-0.001-0-0.002-0-0.002 0-0.008 0.005-0.015 0.012-0.018l0-0c0.002-0.001 0.004-0.001 0.007-0.001 0.001 0 0.001 0 0.002 0h0.073c0.001-0 0.001-0 0.002-0 0.008 0 0.016 0.005 0.018 0.013l0 0c0.001 0.003 0.001 0.006 0.001 0.008v0.485c-0 0-0 0.001-0 0.001 0 0.002 0.001 0.004 0.002 0.005v0c0.001 0.001 0.003 0.002 0.005 0.002 0 0 0.001-0 0.001-0h0.514c0 0 0.001 0 0.001 0 0.002 0 0.004-0.001 0.005-0.002v0c0.001-0.001 0.001-0.002 0.002-0.003l0-0c0-0.001 0-0.002 0-0.002s-0-0.001-0-0.001v0-0.485c0.001-0.010 0.009-0.018 0.020-0.018 0 0 0.001 0 0.001 0h-0zM10.611 6.378c-0.014-0.053-0.023-0.114-0.023-0.177 0-0.008 0-0.015 0-0.023l-0 0.001c-0.002-0.067 0.005-0.133 0.021-0.198 0.048-0.131 0.172-0.222 0.317-0.223h0c0 0 0 0 0 0 0.145 0 0.268 0.092 0.316 0.22l0.001 0.002c0.015 0.054 0.023 0.117 0.023 0.181 0 0.006-0 0.013-0 0.019l0-0.001c0 0.006 0 0.013 0 0.019 0 0.064-0.008 0.126-0.024 0.185l0.001-0.005c-0.047 0.132-0.17 0.225-0.316 0.225h-0c-0.145 0-0.269-0.093-0.315-0.223l-0.001-0.002v-0.002zM11.136 6.344c0.010-0.054 0.015-0.109 0.013-0.164 0-0.008 0.001-0.018 0.001-0.027 0-0.048-0.005-0.096-0.014-0.142l0.001 0.005c-0.026-0.092-0.109-0.159-0.208-0.159v0c-0 0-0 0-0 0-0.099 0-0.182 0.067-0.208 0.157l-0 0.002c-0.011 0.054-0.015 0.109-0.013 0.164-0.002 0.055 0.002 0.11 0.013 0.164 0.026 0.092 0.11 0.159 0.209 0.159 0.049 0 0.095-0.017 0.131-0.045l-0.001 0c0.037-0.028 0.064-0.068 0.077-0.113l0-0.002zM11.498 6.569v-1.093c-0-0-0-0.001-0-0.002 0-0.002 0-0.005 0.001-0.007l-0 0c0.003-0.008 0.010-0.013 0.018-0.013 0.001 0 0.001 0 0.002 0h0.073c0 0 0.001-0 0.001-0 0.011 0 0.020 0.009 0.020 0.020 0 0.001-0 0.001-0 0.002v-0 1.093c0 0 0 0.001 0 0.002 0 0.011-0.009 0.020-0.020 0.020-0 0-0.001 0-0.001-0h-0.073c-0 0-0.001 0-0.001 0-0.009 0-0.016-0.005-0.019-0.013l-0-0c-0.001-0.002-0.001-0.004-0.001-0.007 0-0.001 0-0.001 0-0.002v0zM12.463 6.033v0.54c0 0.001 0 0.001 0 0.002 0 0.002-0 0.005-0.001 0.007l0-0c-0.002 0.005-0.006 0.010-0.012 0.012l-0 0c-0.002 0.001-0.004 0.001-0.007 0.001-0.001 0-0.001-0-0.002-0h-0.073c-0.001 0-0.001 0-0.002 0-0.002 0-0.005-0-0.007-0.001l0 0c-0.005-0.002-0.010-0.006-0.012-0.012l-0-0c-0.001-0.002-0.001-0.004-0.001-0.007 0-0.001 0-0.001 0-0.002v0-0.058c0-0.007-0.005-0.010-0.010 0-0.061 0.059-0.145 0.096-0.236 0.096-0.006 0-0.011-0-0.017-0l0.001 0c-0.138 0-0.267-0.066-0.267-0.236s0.123-0.263 0.333-0.263h0.188c0.001 0 0.002 0 0.003-0 0.002-0.001 0.004-0.002 0.005-0.005v-0c0-0.001 0-0.002 0-0.002s-0-0.001-0-0.001v0-0.070c0.001-0.005 0.001-0.011 0.001-0.017 0-0.073-0.048-0.136-0.115-0.157l-0.001-0c-0.014-0.005-0.031-0.007-0.048-0.007-0.009 0-0.018 0.001-0.027 0.002l0.001-0c-0.102 0-0.168 0.043-0.186 0.111-0 0.003-0.001 0.006-0.003 0.008l0-0c-0.003 0.005-0.009 0.009-0.016 0.009-0.002 0-0.004-0-0.006-0.001l0 0-0.082-0.009c-0.012 0-0.020-0.007-0.019-0.018 0.020-0.118 0.141-0.199 0.307-0.199 0.2 0.003 0.309 0.115 0.309 0.279zM12.345 6.327v-0.125c0-0 0-0.001 0-0.001 0-0.002-0.001-0.004-0.002-0.005v0c-0.001-0.001-0.003-0.002-0.005-0.002-0 0-0.001 0-0.001 0h-0.17c-0.141 0-0.237 0.060-0.237 0.164s0.082 0.144 0.179 0.144c0.122 0.002 0.236-0.060 0.236-0.176z"></path>
<path fill="#8c8c8c" style="fill: var(--color4, #8c8c8c)" d="M12.379 3.071h-2.781v1.754h2.781v-1.754z"></path>
<path fill="#fff" style="fill: var(--color2, #fff)" d="M12.379 3.496h-2.781v0.905h2.781v-0.905z"></path>
<path fill="#263238" style="fill: var(--color3, #263238)" d="M9.598 3.071v-0.031c-0.017 0-0.031 0.014-0.031 0.031v0h0.031zM12.379 3.071h0.031c0-0.017-0.014-0.031-0.031-0.031v0 0.031zM12.379 4.825v0.031c0.017 0 0.031-0.014 0.031-0.031v0h-0.031zM9.598 4.825h-0.031c0 0.017 0.014 0.031 0.031 0.031v0-0.031zM9.598 3.496v-0.031c-0.017 0-0.031 0.014-0.031 0.031v0h0.031zM12.379 3.496h0.031c0-0.017-0.014-0.031-0.031-0.031v0 0.031zM12.379 4.401v0.031c0.017 0 0.031-0.014 0.031-0.031v0h-0.031zM9.598 4.401h-0.031c0 0.017 0.014 0.031 0.031 0.031v0-0.031zM9.598 3.102h2.781v-0.063h-2.781v0.063zM12.348 3.071v1.754h0.063v-1.754h-0.063zM12.379 4.794h-2.781v0.063h2.781v-0.063zM9.63 4.825v-1.754h-0.063v1.754h0.063zM9.598 3.527h2.781v-0.063h-2.781v0.063zM12.348 3.496v0.905h0.063v-0.905h-0.063zM12.379 4.37h-2.781v0.063h2.781v-0.063zM9.63 4.401v-0.905h-0.063v0.905h0.063z"></path>
<path fill="#fff" style="fill: var(--color2, #fff)" d="M33.993 10.518h-2.184c-0.46 0-0.876 0.187-1.177 0.489l-0 0c-0.301 0.302-0.488 0.719-0.488 1.179 0 0 0 0 0 0v0 0.616l-1.089-0.042 1.092 0.714v0.462c0 0 0 0 0 0 0 0.46 0.186 0.877 0.488 1.18l-0-0c0.301 0.302 0.718 0.489 1.177 0.489h2.185c0.46-0 0.876-0.187 1.177-0.489l0-0c0.301-0.302 0.488-0.719 0.488-1.18 0-0 0-0 0-0v0-1.75c-0-0.461-0.187-0.878-0.489-1.181v0c-0.301-0.301-0.717-0.487-1.176-0.487-0.001 0-0.002 0-0.003 0h0z"></path>
<path fill="#263238" style="fill: var(--color3, #263238)" d="M32.040 13.63h0.073c0 0 0 0 0.001 0 0.003 0 0.005 0.001 0.007 0.001l-0-0c0.005 0.002 0.009 0.006 0.011 0.011l0 0c0.001 0.002 0.001 0.005 0.001 0.008v1.093c0 0 0 0.001 0 0.002 0 0.005-0.002 0.010-0.005 0.014v0c-0.004 0.004-0.009 0.006-0.014 0.006-0 0-0.001 0-0.001 0h-0.073c-0.001 0-0.001 0-0.002 0-0.002 0-0.005-0-0.007-0.001l0 0c-0.003-0.001-0.005-0.003-0.007-0.005v0c-0.002-0.002-0.004-0.004-0.005-0.007l-0-0c-0.001-0.002-0.001-0.004-0.001-0.007 0-0.001 0-0.001 0-0.002v0-0.492c0-0 0-0.001 0-0.001 0-0.003-0.002-0.006-0.005-0.007l-0-0c-0.001-0-0.001-0-0.002-0s-0.001 0-0.001 0h-0.513c-0-0-0.001-0-0.001-0s-0.002 0-0.002 0h0c-0.001 0-0.002 0.001-0.003 0.002v0c-0.001 0.001-0.001 0.002-0.002 0.003l-0 0c-0 0.001-0 0.002-0 0.002s0 0.001 0 0.001v-0 0.492c0 0 0 0.001 0 0.002 0 0.008-0.005 0.016-0.013 0.019l-0 0c-0.002 0.001-0.004 0.001-0.007 0.001-0.001 0-0.001-0-0.002-0h-0.073c-0.001 0-0.001 0-0.002 0-0.005 0-0.010-0.002-0.014-0.006v0c-0.002-0.002-0.004-0.004-0.005-0.007l-0-0c-0.001-0.002-0.001-0.004-0.001-0.007 0-0.001 0-0.001 0-0.002v0-1.093c0-0 0-0 0-0.001 0-0.009 0.005-0.016 0.013-0.019l0-0c0.002-0.001 0.004-0.001 0.007-0.001 0.001 0 0.001 0 0.002 0h0.073c0.001-0 0.001-0 0.002-0 0.005 0 0.010 0.002 0.014 0.006v0c0.004 0.004 0.006 0.009 0.006 0.014 0 0 0 0.001 0 0.001v-0 0.485c-0 0-0 0.001-0 0.001s0 0.002 0 0.002l-0-0c0 0.001 0.001 0.002 0.002 0.003v0c0.001 0.001 0.002 0.001 0.003 0.002l0 0c0.001 0 0.001 0 0.002 0s0.001-0 0.001-0h0.513c0 0 0.001 0 0.001 0s0.002-0 0.002-0h-0c0.003-0.001 0.005-0.004 0.005-0.007 0-0-0-0.001-0-0.001v0-0.485c-0-0-0-0.001-0-0.001 0-0.003 0.001-0.005 0.001-0.007l-0 0c0.002-0.005 0.006-0.009 0.012-0.011l0-0c0.002-0.001 0.004-0.001 0.007-0.001 0.001 0 0.001 0 0.002 0h-0zM32.936 14.557c0.002-0.005 0.006-0.010 0.011-0.012l0-0c0.002-0.001 0.004-0.001 0.006-0.001 0.004 0 0.007 0.001 0.010 0.003l-0-0 0.047 0.026c0.011 0.007 0.016 0.016 0.010 0.027-0.053 0.106-0.16 0.178-0.284 0.178-0.006 0-0.011-0-0.017-0l0.001 0c-0.006 0-0.013 0.001-0.020 0.001-0.131 0-0.242-0.084-0.282-0.201l-0.001-0.002c-0.020-0.059-0.032-0.127-0.032-0.197 0-0.009 0-0.019 0.001-0.028l-0 0.001c-0.001-0.011-0.001-0.023-0.001-0.036 0-0.054 0.006-0.106 0.016-0.157l-0.001 0.005c0.018-0.071 0.059-0.13 0.114-0.172l0.001-0.001c0.050-0.038 0.114-0.060 0.182-0.060 0.006 0 0.011 0 0.016 0l-0.001-0c0.007-0.001 0.014-0.001 0.022-0.001 0.076 0 0.145 0.028 0.198 0.074l-0-0c0.059 0.051 0.098 0.124 0.104 0.205l0 0.001c0.009 0.054 0.012 0.109 0.010 0.164 0 0 0 0.001 0 0.002 0 0.011-0.008 0.019-0.019 0.019-0.001 0-0.002-0-0.002-0h-0.518c-0-0-0.001-0-0.001-0-0.003 0-0.006 0.002-0.007 0.005l-0 0c-0 0.001-0.001 0.002-0 0.003-0 0.005-0 0.011-0 0.017 0 0.036 0.004 0.072 0.011 0.106l-0.001-0.003c0.023 0.092 0.105 0.159 0.203 0.159 0.006 0 0.012-0 0.017-0.001l-0.001 0c0.002 0 0.005 0 0.008 0 0.087 0 0.162-0.050 0.198-0.122l0.001-0.001zM32.513 14.184c-0.008 0.033-0.013 0.070-0.013 0.109 0 0.001 0 0.001 0 0.002v-0c-0 0-0 0.001-0 0.001 0 0.002 0.001 0.004 0.002 0.005v0c0.001 0.001 0.002 0.001 0.003 0.002l0 0c0.001 0 0.002 0.001 0.003 0h0.416c0 0 0 0 0 0 0.001 0 0.002-0 0.003-0.001l-0 0c0.002-0.001 0.003-0.002 0.004-0.004v-0c0-0.001 0-0.001 0-0.002s-0-0.001-0-0.001v0c-0.001-0.038-0.004-0.074-0.010-0.109l0.001 0.005c-0.021-0.091-0.101-0.159-0.197-0.159-0.004 0-0.008 0-0.012 0l0.001-0c-0.004-0-0.008-0-0.013-0-0.092 0-0.169 0.065-0.188 0.151l-0 0.001zM33.274 14.743v-1.093c0-0 0-0.001 0-0.001 0-0.006 0.002-0.011 0.006-0.014v0c0.004-0.003 0.008-0.006 0.014-0.006 0.001 0 0.001 0 0.002 0h0.073c0.001-0 0.001-0 0.002-0 0.008 0 0.015 0.005 0.018 0.012l0 0c0.001 0.002 0.001 0.004 0.001 0.007 0 0.001-0 0.001-0 0.002v-0 1.093c0 0.001 0 0.002 0 0.003 0 0.010-0.008 0.019-0.019 0.019-0.001 0-0.001-0-0.002-0h-0.073c-0.001 0-0.001 0-0.002 0-0.002 0-0.005-0-0.007-0.001l0 0c-0.005-0.002-0.010-0.006-0.012-0.012l-0-0c-0.001-0.002-0.001-0.004-0.001-0.007 0-0.001 0-0.001 0-0.002v0zM33.65 14.743v-1.093c0-0 0-0 0-0.001 0-0.006 0.002-0.011 0.006-0.014v0c0.004-0.004 0.008-0.006 0.014-0.006 0 0 0.001 0 0.001 0h0.073c0.001-0 0.001-0 0.002-0 0.005 0 0.010 0.002 0.014 0.006v0c0.004 0.004 0.006 0.009 0.006 0.014 0 0 0 0.001 0 0.001v-0 1.093c0 0.001 0 0.001 0 0.002 0 0.002-0 0.005-0.001 0.007l0-0c-0.003 0.008-0.010 0.013-0.019 0.013-0.001 0-0.001-0-0.002-0h-0.073c-0 0-0.001 0-0.001 0-0.003 0-0.005-0.001-0.008-0.002l0 0c-0.005-0.002-0.009-0.006-0.011-0.012l-0-0c-0.001-0.002-0.001-0.004-0.001-0.007 0-0.001 0-0.001 0-0.002v0zM34.022 14.552c-0.015-0.054-0.023-0.115-0.023-0.179 0-0.007 0-0.014 0-0.021l-0 0.001c-0.002-0.067 0.005-0.133 0.021-0.198 0.025-0.067 0.067-0.122 0.122-0.161l0.001-0.001c0.054-0.038 0.121-0.061 0.193-0.061 0.145 0 0.268 0.092 0.316 0.22l0.001 0.002c0.014 0.053 0.022 0.115 0.022 0.178 0 0.008-0 0.015-0 0.022l0-0.001c0.002 0.067-0.005 0.134-0.022 0.199-0.047 0.132-0.17 0.225-0.316 0.225h-0c-0.145-0-0.269-0.093-0.315-0.223l-0.001-0.002v-0.002zM34.546 14.518c0.009-0.043 0.013-0.092 0.013-0.142 0-0.008-0-0.015-0-0.023l0 0.001c0-0.008 0.001-0.017 0.001-0.027 0-0.049-0.005-0.096-0.014-0.142l0.001 0.005c-0.026-0.092-0.109-0.159-0.209-0.159v0c0 0 0 0 0 0-0.099 0-0.183 0.067-0.208 0.158l-0 0.002c-0.011 0.054-0.015 0.109-0.013 0.164-0.002 0.055 0.002 0.11 0.013 0.164 0.026 0.092 0.109 0.159 0.208 0.159h0c0.099-0 0.182-0.067 0.208-0.157l0-0.002z"></path>
<path fill="#fff" style="fill: var(--color2, #fff)" d="M34.304 11.246h-2.781v1.754h2.781v-1.754z"></path>
<path fill="#263238" style="fill: var(--color3, #263238)" d="M34.319 11.246h-2.781v0.17h2.781v-0.17zM34.319 11.511h-2.781v0.17h2.781v-0.17zM34.319 11.777h-2.781v0.17h2.781v-0.17zM34.319 12.042h-2.781v0.17h2.781v-0.17zM34.319 12.308h-2.781v0.17h2.781v-0.17zM34.319 12.574h-2.781v0.17h2.781v-0.17zM34.319 12.84h-2.781v0.17h2.781v-0.17z"></path>
<path fill="#263238" style="fill: var(--color3, #263238)" d="M32.871 11.246h-1.348v0.934h1.348v-0.934z"></path>
<path fill="#fff" style="fill: var(--color2, #fff)" d="M31.576 11.324l0.012 0.026 0.026 0.004-0.019 0.021 0.004 0.029-0.024-0.013-0.023 0.013 0.004-0.029-0.019-0.021 0.026-0.004 0.011-0.026zM31.576 11.498l0.012 0.026 0.026 0.004-0.019 0.021 0.004 0.029-0.024-0.014-0.023 0.014 0.004-0.029-0.019-0.021 0.026-0.004 0.011-0.026zM31.576 11.67l0.012 0.026 0.026 0.004-0.019 0.021 0.004 0.029-0.024-0.014-0.023 0.014 0.004-0.029-0.019-0.021 0.026-0.004 0.011-0.026zM31.576 11.842l0.012 0.026 0.026 0.005-0.019 0.020 0.004 0.029-0.024-0.013-0.023 0.013 0.004-0.029-0.019-0.020 0.026-0.005 0.011-0.026zM31.576 12.015l0.012 0.026 0.026 0.004-0.019 0.021 0.004 0.029-0.024-0.014-0.023 0.014 0.004-0.029-0.019-0.021 0.026-0.004 0.011-0.026zM31.699 11.425l0.011 0.026 0.026 0.004-0.019 0.021 0.004 0.029-0.023-0.013-0.024 0.013 0.004-0.029-0.019-0.021 0.026-0.004 0.012-0.026zM31.699 11.598l0.011 0.026 0.026 0.004-0.019 0.021 0.004 0.029-0.023-0.014-0.024 0.014 0.004-0.029-0.019-0.021 0.026-0.004 0.012-0.026zM31.699 11.771l0.011 0.026 0.026 0.004-0.019 0.021 0.004 0.029-0.023-0.013-0.024 0.013 0.004-0.029-0.019-0.021 0.026-0.004 0.012-0.026zM31.699 11.943l0.011 0.026 0.026 0.004-0.019 0.021 0.004 0.029-0.023-0.013-0.024 0.013 0.004-0.029-0.019-0.021 0.026-0.004 0.012-0.026zM31.822 11.324l0.012 0.026 0.026 0.004-0.020 0.021 0.005 0.029-0.024-0.013-0.024 0.013 0.005-0.029-0.020-0.021 0.027-0.004 0.011-0.026zM31.822 11.498l0.012 0.026 0.026 0.004-0.020 0.021 0.005 0.029-0.024-0.014-0.024 0.014 0.005-0.029-0.020-0.021 0.027-0.004 0.011-0.026zM31.822 11.67l0.012 0.026 0.026 0.004-0.020 0.021 0.005 0.029-0.024-0.014-0.024 0.014 0.005-0.029-0.020-0.021 0.027-0.004 0.011-0.026zM31.822 11.842l0.012 0.026 0.026 0.005-0.020 0.020 0.005 0.029-0.024-0.013-0.024 0.013 0.005-0.029-0.020-0.020 0.027-0.005 0.011-0.026zM31.822 12.015l0.012 0.026 0.026 0.004-0.020 0.021 0.005 0.029-0.024-0.014-0.024 0.014 0.005-0.029-0.020-0.021 0.027-0.004 0.011-0.026zM31.946 11.425l0.011 0.026 0.026 0.004-0.019 0.021 0.004 0.029-0.023-0.013-0.024 0.013 0.004-0.029-0.019-0.021 0.026-0.004 0.012-0.026zM31.946 11.598l0.011 0.026 0.026 0.004-0.019 0.021 0.004 0.029-0.023-0.014-0.024 0.014 0.004-0.029-0.019-0.021 0.026-0.004 0.012-0.026zM31.946 11.771l0.011 0.026 0.026 0.004-0.019 0.021 0.004 0.029-0.023-0.013-0.024 0.013 0.004-0.029-0.019-0.021 0.026-0.004 0.012-0.026zM31.946 11.943l0.011 0.026 0.026 0.004-0.019 0.021 0.004 0.029-0.023-0.013-0.024 0.013 0.004-0.029-0.019-0.021 0.026-0.004 0.012-0.026zM32.069 11.324l0.011 0.026 0.026 0.004-0.019 0.021 0.005 0.029-0.024-0.013-0.024 0.013 0.004-0.029-0.019-0.021 0.026-0.004 0.012-0.026zM32.069 11.498l0.011 0.026 0.026 0.004-0.019 0.021 0.005 0.029-0.024-0.014-0.024 0.014 0.004-0.029-0.019-0.021 0.026-0.004 0.012-0.026zM32.069 11.67l0.011 0.026 0.026 0.004-0.019 0.021 0.005 0.029-0.024-0.014-0.024 0.014 0.004-0.029-0.019-0.021 0.026-0.004 0.012-0.026zM32.069 11.842l0.011 0.026 0.026 0.005-0.019 0.020 0.005 0.029-0.024-0.013-0.024 0.013 0.004-0.029-0.019-0.020 0.026-0.005 0.012-0.026zM32.069 12.015l0.011 0.026 0.026 0.004-0.019 0.021 0.005 0.029-0.024-0.014-0.024 0.014 0.004-0.029-0.019-0.021 0.026-0.004 0.012-0.026zM32.191 11.425l0.012 0.026 0.026 0.004-0.019 0.021 0.004 0.029-0.024-0.013-0.024 0.013 0.005-0.029-0.019-0.021 0.026-0.004 0.011-0.026zM32.191 11.598l0.012 0.026 0.026 0.004-0.019 0.021 0.004 0.029-0.024-0.014-0.024 0.014 0.005-0.029-0.019-0.021 0.026-0.004 0.011-0.026zM32.191 11.771l0.012 0.026 0.026 0.004-0.019 0.021 0.004 0.029-0.024-0.013-0.024 0.013 0.005-0.029-0.019-0.021 0.026-0.004 0.011-0.026zM32.191 11.943l0.012 0.026 0.026 0.004-0.019 0.021 0.004 0.029-0.024-0.013-0.024 0.013 0.005-0.029-0.019-0.021 0.026-0.004 0.011-0.026zM32.315 11.324l0.011 0.026 0.026 0.004-0.019 0.021 0.004 0.029-0.023-0.013-0.024 0.013 0.004-0.029-0.019-0.021 0.026-0.004 0.012-0.026zM32.315 11.498l0.011 0.026 0.026 0.004-0.019 0.021 0.004 0.029-0.023-0.014-0.024 0.014 0.004-0.029-0.019-0.021 0.026-0.004 0.012-0.026zM32.315 11.67l0.011 0.026 0.026 0.004-0.019 0.021 0.004 0.029-0.023-0.014-0.024 0.014 0.004-0.029-0.019-0.021 0.026-0.004 0.012-0.026zM32.315 11.842l0.011 0.026 0.026 0.005-0.019 0.020 0.004 0.029-0.023-0.013-0.024 0.013 0.004-0.029-0.019-0.020 0.026-0.005 0.012-0.026zM32.315 12.015l0.011 0.026 0.026 0.004-0.019 0.021 0.004 0.029-0.023-0.014-0.024 0.014 0.004-0.029-0.019-0.021 0.026-0.004 0.012-0.026zM32.438 11.425l0.011 0.026 0.027 0.004-0.020 0.021 0.005 0.029-0.024-0.013-0.024 0.013 0.005-0.029-0.020-0.021 0.027-0.004 0.011-0.026zM32.438 11.598l0.011 0.026 0.027 0.004-0.020 0.021 0.005 0.029-0.024-0.014-0.024 0.014 0.005-0.029-0.020-0.021 0.027-0.004 0.011-0.026zM32.438 11.771l0.011 0.026 0.027 0.004-0.020 0.021 0.005 0.029-0.024-0.013-0.024 0.013 0.005-0.029-0.020-0.021 0.027-0.004 0.011-0.026zM32.438 11.943l0.011 0.026 0.027 0.004-0.020 0.021 0.005 0.029-0.024-0.013-0.024 0.013 0.005-0.029-0.020-0.021 0.027-0.004 0.011-0.026zM32.561 11.324l0.012 0.026 0.026 0.004-0.019 0.021 0.004 0.029-0.024-0.013-0.023 0.013 0.004-0.029-0.019-0.021 0.026-0.004 0.011-0.026zM32.561 11.498l0.012 0.026 0.026 0.004-0.019 0.021 0.004 0.029-0.024-0.014-0.023 0.014 0.004-0.029-0.019-0.021 0.026-0.004 0.011-0.026zM32.561 11.67l0.012 0.026 0.026 0.004-0.019 0.021 0.004 0.029-0.024-0.014-0.023 0.014 0.004-0.029-0.019-0.021 0.026-0.004 0.011-0.026zM32.561 11.842l0.012 0.026 0.026 0.005-0.019 0.020 0.004 0.029-0.024-0.013-0.023 0.013 0.004-0.029-0.019-0.020 0.026-0.005 0.011-0.026zM32.561 12.015l0.012 0.026 0.026 0.004-0.019 0.021 0.004 0.029-0.024-0.014-0.023 0.014 0.004-0.029-0.019-0.021 0.026-0.004 0.011-0.026zM32.685 11.425l0.011 0.026 0.026 0.004-0.019 0.021 0.005 0.029-0.024-0.013-0.024 0.013 0.004-0.029-0.019-0.021 0.026-0.004 0.012-0.026zM32.685 11.598l0.011 0.026 0.026 0.004-0.019 0.021 0.005 0.029-0.024-0.014-0.024 0.014 0.004-0.029-0.019-0.021 0.026-0.004 0.012-0.026zM32.685 11.771l0.011 0.026 0.026 0.004-0.019 0.021 0.005 0.029-0.024-0.013-0.024 0.013 0.004-0.029-0.019-0.021 0.026-0.004 0.012-0.026zM32.685 11.943l0.011 0.026 0.026 0.004-0.019 0.021 0.005 0.029-0.024-0.013-0.024 0.013 0.004-0.029-0.019-0.021 0.026-0.004 0.012-0.026zM32.807 11.324l0.012 0.026 0.026 0.004-0.019 0.021 0.004 0.029-0.024-0.013-0.024 0.013 0.005-0.029-0.019-0.021 0.026-0.004 0.011-0.026zM32.807 11.498l0.012 0.026 0.026 0.004-0.019 0.021 0.004 0.029-0.024-0.014-0.024 0.014 0.005-0.029-0.019-0.021 0.026-0.004 0.011-0.026zM32.807 11.67l0.012 0.026 0.026 0.004-0.019 0.021 0.004 0.029-0.024-0.014-0.024 0.014 0.005-0.029-0.019-0.021 0.026-0.004 0.011-0.026zM32.807 11.842l0.012 0.026 0.026 0.005-0.019 0.020 0.004 0.029-0.024-0.013-0.024 0.013 0.005-0.029-0.019-0.020 0.026-0.005 0.011-0.026zM32.807 12.015l0.012 0.026 0.026 0.004-0.019 0.021 0.004 0.029-0.024-0.014-0.024 0.014 0.005-0.029-0.019-0.021 0.026-0.004 0.011-0.026z"></path>
<path fill="#fff" style="fill: var(--color2, #fff)" d="M13.402 13.055h-1.436c-0.223-0.686-0.683-1.242-1.28-1.585l-0.014-0.007c-0.397-0.229-0.873-0.364-1.381-0.364-0.23 0-0.454 0.028-0.668 0.080l0.019-0.004c-0.706 0.172-1.293 0.592-1.678 1.161l-0.006 0.010c-0.298 0.44-0.476 0.983-0.476 1.567 0 0.155 0.013 0.307 0.037 0.455l-0.002-0.016c0.117 0.723 0.494 1.341 1.031 1.767l0.006 0.004c0.473 0.376 1.079 0.603 1.738 0.603 0.079 0 0.157-0.003 0.234-0.010l-0.010 0.001c0.733-0.061 1.378-0.394 1.841-0.898l0.002-0.002c0.46-0.499 0.742-1.169 0.742-1.904 0-0.004 0-0.007-0-0.011v0.001-0.063l1.302-0.784z"></path>
<path fill="#263238" style="fill: var(--color3, #263238)" d="M7.93 14.84c-0.056 0.097-0.112 0.18-0.174 0.258l0.003-0.004c-0.023-0.033-0.045-0.061-0.070-0.088l0.001 0.001c0.169-0.225 0.303-0.488 0.386-0.772l0.004-0.017 0.134 0.040c-0.007 0.016-0.020 0.020-0.039 0.018-0.052 0.155-0.104 0.282-0.163 0.405l0.009-0.021 0.047 0.013c0 0.010-0.011 0.018-0.032 0.019v1.031h-0.106v-0.882zM9.038 14.879c0.013-0.060 0.030-0.151 0.043-0.239h-0.322v0.947c0 0.117-0.042 0.138-0.269 0.138-0.009-0.042-0.023-0.079-0.041-0.114l0.001 0.002h0.174c0.021 0 0.028-0.007 0.028-0.028v-0.945h-0.26c-0.046 0.117-0.101 0.218-0.167 0.311l0.003-0.004c-0.024-0.025-0.051-0.047-0.080-0.065l-0.002-0.001c0.127-0.188 0.22-0.41 0.265-0.649l0.002-0.011 0.134 0.036c0 0.011-0.014 0.018-0.035 0.016-0.027 0.108-0.055 0.197-0.088 0.283l0.006-0.017h0.772c-0.019 0.138-0.045 0.259-0.078 0.376l0.005-0.020-0.093-0.016zM8.52 14.933c-0.005 0.011-0.016 0.018-0.036 0.018-0.051 0.206-0.136 0.387-0.249 0.546l0.003-0.005c-0.025-0.020-0.053-0.039-0.083-0.054l-0.003-0.001c0.11-0.154 0.192-0.337 0.235-0.533l0.002-0.010 0.131 0.039zM9.108 15.479c-0.053-0.212-0.13-0.399-0.228-0.571l0.006 0.011 0.096-0.034c0.096 0.159 0.174 0.344 0.227 0.539l0.003 0.015-0.104 0.039zM9.882 14.555l0.061 0.016-0.010 0.023c-0.013 0.254-0.069 0.492-0.161 0.711l0.005-0.014c0.072 0.053 0.135 0.111 0.191 0.175l0.001 0.001-0.066 0.089c-0.052-0.063-0.108-0.118-0.171-0.167l-0.002-0.002c-0.076 0.141-0.185 0.256-0.316 0.337l-0.004 0.002c-0.020-0.034-0.043-0.063-0.068-0.090l0 0c0.13-0.075 0.234-0.182 0.302-0.312l0.002-0.004c-0.053-0.040-0.113-0.081-0.175-0.119l-0.009-0.005-0.020 0.071-0.093-0.048c0.041-0.143 0.091-0.349 0.138-0.558h-0.164v-0.103h0.184c0.026-0.121 0.048-0.238 0.068-0.342l0.133 0.016c0 0.011-0.011 0.018-0.032 0.020-0.037 0.192-0.059 0.296-0.083 0.399l0.018-0.092h0.246l0.024-0.004zM9.59 14.662c-0.055 0.253-0.092 0.4-0.13 0.545l0.025-0.11c0.082 0.046 0.149 0.089 0.214 0.134l-0.008-0.005c0.069-0.165 0.117-0.357 0.134-0.557l0-0.007h-0.234zM10.825 14.941v0.105h-0.391v0.537c0 0.125-0.048 0.144-0.335 0.141-0.011-0.041-0.024-0.077-0.042-0.111l0.001 0.003h0.194c0.055 0 0.071 0 0.071-0.034v-0.538h-0.396v-0.105h0.396v-0.276h0.053c0.089-0.079 0.168-0.165 0.237-0.26l0.003-0.005h-0.623v-0.103h0.705l0.021-0.007 0.086 0.054c-0.007 0.007-0.016 0.013-0.026 0.015l-0 0c-0.102 0.142-0.216 0.265-0.343 0.372l-0.003 0.002v0.201l0.391 0.007zM10.687 11.956h-2.781v1.754h2.781v-1.754z"></path>
<path fill="#fff" style="fill: var(--color2, #fff)" d="M8.234 12.060l0.068 0.137 0.15 0.021-0.109 0.107 0.026 0.149-0.135-0.071-0.134 0.071 0.026-0.149-0.109-0.107 0.15-0.021 0.067-0.137zM8.671 12.006l0.035 0.071 0.077 0.011-0.056 0.054 0.013 0.077-0.070-0.036-0.069 0.036 0.013-0.077-0.056-0.054 0.078-0.011 0.034-0.071zM8.765 12.362l0.034 0.071 0.078 0.011-0.057 0.055 0.013 0.077-0.069-0.036-0.070 0.036 0.013-0.077-0.056-0.055 0.077-0.011 0.035-0.071zM8.534 12.595l0.034 0.070 0.078 0.011-0.056 0.055 0.013 0.077-0.070-0.037-0.069 0.037 0.013-0.077-0.056-0.055 0.078-0.011 0.034-0.070zM8.214 12.702l0.034 0.070 0.078 0.011-0.056 0.055 0.013 0.077-0.070-0.036-0.069 0.036 0.013-0.077-0.056-0.055 0.078-0.011 0.034-0.070z"></path>
<path fill="none" stroke="#263238" style="stroke: var(--color3, #263238)" stroke-linejoin="round" stroke-linecap="round" stroke-miterlimit="4" stroke-width="0.3765" d="M24.916 8.921v-2.52M16.939 6.4v2.52"></path>
<path fill="#fff" style="fill: var(--color2, #fff)" d="M19.379 12.702s0.212 1.484 0.17 1.866c-0.043 0.382-0.127 0.763-1.185 0.339s-2.963 0.34-4.19 1.823c-1.228 1.483-3.555 6.444-3.555 7.038s0.465 1.395 1.311 1.526c0.845 0.131 2.836-2.289 2.836-2.289s0.846 4.79 0.846 5.169c0 0.378-0.379 2.883-0.379 2.883h11.978l-0.466-3.095 0.847-6.826s3.513 4.79 4.275 5.005c0.762 0.214 1.947-0.17 2.243-1.060s-0.17-1.823-0.763-2.501-4.317-6.656-4.996-7.207c-0.68-0.55-2.582-0.594-3.259-0.424s-1.82 0.424-2.117 0.254c-0.296-0.17-0.296-1.78 0-2.501 0.003 0.002-2.579 0.68-3.595 0.002z"></path>
<path fill="#fff" style="fill: var(--color2, #fff)" d="M28.873 24.865c0.62-0.338 1.15-0.686 1.649-1.073l-0.028 0.021c0.604-0.468 1.373-0.751 2.208-0.751 0.131 0 0.26 0.007 0.388 0.020l-0.016-0.001c0.845 0.091 1.302 1.143 1.324 2.195s-0.548 1.692-1.575 1.852c-1.027 0.16-2.238-0.068-2.99-0.251-0.332-0.089-0.742-0.17-1.161-0.224l-0.050-0.005s-0.981-1.51 0.251-1.784z"></path>
<path fill="#fff" style="fill: var(--color2, #fff)" d="M34.397 25.276c-0.022-1.053-0.479-2.104-1.324-2.195-0.111-0.012-0.241-0.019-0.372-0.019-0.835 0-1.604 0.282-2.217 0.757l0.008-0.006-0.115 0.088c0.983 0.034 2.97 0.436 2.659 3.185 0.891-0.214 1.381-0.834 1.36-1.809zM19.379 12.702s0.212 1.484 0.17 1.866c-0.032 0.286-0.088 0.574-0.559 0.519 0.675 1.105 2.635 3.699 4.464 0.164-0.213 0.013-0.385 0-0.477-0.051-0.296-0.17-0.296-1.78 0-2.501 0 0.004-2.582 0.683-3.597 0.004z"></path>
<path fill="#263238" style="fill: var(--color3, #263238)" d="M19.379 12.702s0.055 0.386 0.103 0.814c0.46 0.249 1.003 0.406 1.581 0.433l0.008 0c0.015 0 0.032 0 0.049 0 0.625 0 1.207-0.187 1.691-0.509l-0.011 0.007c0.030-0.276 0.092-0.529 0.183-0.767l-0.007 0.021s-2.582 0.678-3.597 0zM17.053 7.571h-0.233c-0.287 0-0.519 0.233-0.519 0.52v1.99c0 0.287 0.233 0.52 0.519 0.52h0.233c0.287 0 0.519-0.233 0.519-0.52v-1.99c0-0.287-0.232-0.52-0.519-0.52z"></path>
<path fill="#fff" style="fill: var(--color2, #fff)" d="M17.066 7.573h-0.26v3.026h0.26v-3.026z"></path>
<path fill="#263238" style="fill: var(--color3, #263238)" d="M25.057 7.571h-0.233c-0.287 0-0.519 0.233-0.519 0.52v1.99c0 0.287 0.233 0.52 0.519 0.52h0.233c0.287 0 0.519-0.233 0.519-0.52v-1.99c0-0.287-0.232-0.52-0.519-0.52z"></path>
<path fill="#fff" style="fill: var(--color2, #fff)" d="M25.070 7.573h-0.26v3.026h0.26v-3.026zM14.936 9.964c-0.206 0.019-0.381 0.141-0.473 0.313l-0.002 0.003c-0.19 0.317-0.79 1.488-0.727 1.837s2.687 2.818 2.687 2.976c0 0.158-2.086 3.008-3.478 4.275s-2.497 2.691-2.687 3.831c-0.19 1.14 0.474 2.090 1.17 2.28s1.549-0.221 2.529-1.457c0.98-1.236 3.668-6.618 4.079-8.45 0 0 0.094-0.82-0.285-1.299s-1.328-1.583-1.328-1.583 0.19-2.185 0.032-2.343c-0.158-0.158-0.316 0.19-0.316 0.19s-0.147-0.733-0.348-0.697c-0.22 0.039-0.284 0.317-0.284 0.317s-0.158-0.637-0.569-0.194z"></path>
<path fill="#fff" style="fill: var(--color2, #fff)" d="M14.332 17.89c-0.445 0.534-0.899 1.016-1.379 1.469l-0.008 0.008c-1.392 1.266-2.497 2.691-2.687 3.831s0.474 2.090 1.17 2.28c0.696 0.19 1.549-0.222 2.529-1.457 0.564-0.711 1.693-2.794 2.628-4.785-1.425-0.379-2.013-0.97-2.252-1.346zM17.544 6.001s-0.055 4.408 0.111 5.235c0.165 0.827 1.65 2.232 3.358 2.287s3.053-1.515 3.218-2.342c0.165-0.827 0-4.132-0.027-5.455s-1.926-2.507-3.85-2.204c-1.924 0.303-2.92 1.432-2.81 2.48z"></path>
<path fill="#fff" style="fill: var(--color2, #fff)" d="M22.138 10.519s-1.486 0.19-2.146-0.466c0 0 0.164 1.020 0.66 1.185s1.486-0.72 1.486-0.72z"></path>
<path fill="#263238" style="fill: var(--color3, #263238)" d="M22.468 4.843s0.713 2.292 1.795 2.885c-0.024-0.786-0.052-1.524-0.061-2.003-0.028-1.323-1.926-2.507-3.85-2.204s-2.916 1.432-2.806 2.48c0 0-0.009 0.72-0.008 1.633 0.929-0.401 3.375-1.519 4.931-2.79z"></path>
<path fill="#263238" style="fill: var(--color3, #263238)" d="M22.763 13.104s0 0.999-0.748 2.592c-0.748 1.592-0.78 3.185-0.281 4.371s1.84 1.656 3.276 1.125c1.437-0.531 1.621-2.904 1.465-4.341s-1.556-3.123-1.871-3.966c-0.315-0.843-0.53-1.28-0.53-1.28s-0.811 1.124-1.311 1.373l-0.002 0.126z"></path>
<path fill="#263238" style="fill: var(--color3, #263238)" d="M26.61 21.943l-5.318-0.215c-0.235-0.009-0.432 0.173-0.442 0.408l-0.296 7.355c-0.009 0.235 0.173 0.433 0.408 0.443l5.318 0.215c0.235 0.009 0.432-0.173 0.442-0.408l0.296-7.355c0.009-0.235-0.173-0.433-0.408-0.443z"></path>
<path fill="#fff" style="fill: var(--color2, #fff)" d="M29.32 24.918s-2.723-0.848-3.187-0.991c-0.464-0.143-3.139 1.858-3.246 2.144s0.285 0.286 0.285 0.286-0.164 0.285 0.082 0.428c0.071 0.048 0.151 0.093 0.236 0.13l0.009 0.004s-0.142 0.322 0.143 0.429c0.285 0.107 0.678-0.179 0.678-0.179l0.642-0.464s-0.772 0.946-0.607 1.144c0.227 0.271 0.372-0.020 0.372-0.020l0.887-1.053 0.891-0.429s0.713 0.429 1.855 0.464c1.142 0.035 1.392-0.464 1.392-0.464z"></path>
</symbol>
</defs>
</svg>
